<svg width="643" height="284" viewBox="0 0 643 284" fill="none" xmlns="http://www.w3.org/2000/svg">
<path d="M40.9743 237.397C10.9804 200.527 17.6679 143.917 37.7433 104.08C43.6403 92.378 50.0634 81.3207 58.0714 70.9187C83.2785 37.7806 119.031 14.2313 159.425 4.15877C166.638 2.32577 171.968 0.965289 179.379 0C149.008 9.61804 123.544 26.616 106.224 53.7639C99.6488 64.0706 95.0264 72.8033 92.3709 84.7957C91.5728 86.9754 90.5535 96.6771 89.3567 98.0291C81.56 106.837 74.5782 115.653 67.5411 125.039C65.751 108.462 65.66 93.5084 71.9954 77.7242C61.038 93.6525 57.8037 110.754 58.4956 129.805C58.6502 132.672 58.9583 135.225 58.1977 138.01C57.4876 138.924 57.3315 139.113 56.8652 140.202C49.5912 151.4 43.1707 163.455 40.3231 176.659C37.8782 187.996 38.4515 204.305 43.2307 214.999C45.7767 220.697 50.0292 226.948 53.4934 232.282C49.2209 233.881 45.1718 235.612 40.9743 237.397Z" fill="#082C54"/>
<path d="M230.11 43.0082C230.284 23.3349 244.237 6.48337 263.531 2.6475C282.824 -1.18833 302.161 9.04437 309.844 27.1559C317.527 45.2676 311.447 66.2859 295.283 77.4971C279.119 88.7083 257.306 87.0347 243.041 73.4884C234.692 65.5608 230.009 54.5221 230.11 43.0082Z" fill="#082C54"/>
<path d="M241.583 25.1471C250.538 10.8942 266.593 4.98582 282.651 9.70926L284.355 10.5106C284.909 10.6723 285.948 11.0109 286.476 11.0784L287.259 11.9015C289.084 12.6143 289.948 13.3 291.521 14.4096L292.774 15.4655C293.193 15.8257 295.439 17.8097 295.742 17.9989L297.033 19.4691L298.175 20.6218L299.067 21.7475C305.179 28.6596 306.464 35.6226 306.527 44.593C305.754 64.6974 289.497 79.4207 269.478 78.7399L269.174 78.7272L266.994 78.4933L265.468 78.2848L264.058 77.8995C263.801 74.8782 264.529 75.6292 264.986 73.0434C264.698 71.9388 265.693 69.0143 266.05 67.8278L264.852 66.6253C263.985 67.3057 263.358 68.144 262.656 68.9939L262.251 68.8083C262.031 68.3495 261.839 67.2177 261.726 66.6686L261.782 66.4627L261.741 64.1516C261.082 63.1012 261.459 63.4451 260.213 62.9171L258.997 63.6397L257.264 61.5557L255.541 61.2883C255.284 61.8129 254.106 68.4987 253.959 69.5302C253.496 71.0659 253.267 71.9566 253.003 73.536L251.161 72.2593C250.214 71.6972 249.127 70.7781 248.241 70.0738C235.952 57.158 232.43 40.9652 241.583 25.1471Z" fill="#ED590B"/>
<path d="M241.583 25.1471C250.538 10.8942 266.593 4.98582 282.651 9.70926L284.355 10.5106C284.909 10.6723 285.948 11.0109 286.476 11.0784L287.259 11.9016C286.483 12.7235 286.042 13.2698 285.059 13.8426C281.489 17.0598 278.126 20.2361 275.111 23.9836C274.617 24.5977 273.947 25.4993 273.413 26.0505C268.702 32.4518 264.607 39.285 261.184 46.4584C260.811 48.3991 259.569 51.0063 258.869 52.9364C258.363 54.4878 256.455 59.5633 255.734 60.9295L255.541 61.2883C255.284 61.8129 254.106 68.4987 253.959 69.5302C253.496 71.0659 253.267 71.9566 253.003 73.536L251.161 72.2593C250.214 71.6972 249.127 70.7782 248.241 70.0738C235.952 57.158 232.43 40.9652 241.583 25.1471Z" fill="#ED590B"/>
<path d="M282.651 9.70996L284.355 10.5113C284.909 10.673 285.948 11.0116 286.476 11.0791L287.259 11.9022C286.483 12.7242 286.042 13.2705 285.059 13.8433C281.489 17.0605 278.126 20.2368 275.11 23.9843C274.616 24.5984 273.947 25.5 273.413 26.0512C268.702 32.4525 264.607 39.2857 261.184 46.4591C260.811 48.3997 259.569 51.007 258.869 52.9371C258.363 54.4885 256.455 59.564 255.734 60.9302L255.541 61.289C255.284 61.8136 254.106 68.4994 253.959 69.5309C253.496 71.0666 253.267 71.9573 253.003 73.5367L251.161 72.26C250.214 71.6979 249.127 70.7788 248.241 70.0745L248.526 69.4534C249.484 66.0705 250.337 62.1356 251.165 58.6766C251.311 57.1434 253.315 53.0488 253.953 51.2755C259.652 35.4574 269.135 19.9821 282.651 9.70996Z" fill="#ED590B"/>
<path d="M282.651 9.70996L284.355 10.5113C269.741 21.2948 259.535 38.4831 254.117 55.465C253.258 58.1585 251.333 61.3359 250.784 64.0854C250.478 65.6135 250.658 68.745 249.413 69.9733L248.526 69.4534C249.484 66.0705 250.337 62.1356 251.165 58.6766C251.311 57.1434 253.315 53.0488 253.953 51.2755C259.653 35.4574 269.135 19.9821 282.651 9.70996Z" fill="#F39B5B"/>
<path d="M283.473 13.2285L285.059 13.8426C281.489 17.0598 278.126 20.2361 275.111 23.9836C274.617 24.5977 273.947 25.4993 273.413 26.0505C268.702 32.4518 264.607 39.285 261.184 46.4583C260.811 48.399 259.569 51.0063 258.869 52.9364C258.363 54.4878 256.455 59.5633 255.734 60.9295L254.591 60.8374C254.19 58.6068 258.709 48.1436 260.007 45.9523C264.6 33.2224 273.699 22.2605 283.473 13.2285Z" fill="#F39B5B"/>
<path d="M254.591 60.8379L255.734 60.9299L255.541 61.2887C255.284 61.8133 254.106 68.4992 253.959 69.5306C253.496 71.0664 253.267 71.957 253.003 73.5364L251.161 72.2597C251.991 70.3227 252.605 66.2288 253.308 64.0771C253.817 62.517 254.152 62.7276 254.591 60.8379Z" fill="#F39B5B"/>
<path d="M286.476 11.0791L287.259 11.9022C286.483 12.7242 286.042 13.2705 285.059 13.8433L283.473 13.2292C284.607 12.027 284.995 11.8564 286.476 11.0791Z" fill="#F39B5B"/>
<path d="M248.241 70.0741C235.952 57.1583 232.43 40.9655 241.583 25.1475C241.593 28.7738 241.27 32.8662 241.386 36.3445C241.67 44.8382 246.825 51.8231 251.165 58.6763C250.337 62.1352 249.484 66.0701 248.526 69.453L248.241 70.0741Z" fill="#D4470A"/>
<path d="M287.259 11.9014C289.084 12.6142 289.948 13.2998 291.521 14.4095L292.774 15.4653C293.193 15.8255 295.439 17.8095 295.742 17.9987L297.033 19.4689L298.175 20.6216L299.067 21.7473C296.096 25.3067 292.415 28.6539 289.573 32.0904C282.315 40.8668 275.857 53.9968 272.376 64.9097C270.643 69.558 269.62 73.7872 269.174 78.727L266.994 78.4931L265.468 78.2846L264.058 77.8993C263.801 74.878 264.529 75.629 264.986 73.0432C264.698 71.9386 265.693 69.0141 266.051 67.8276L264.852 66.6252C263.985 67.3055 263.358 68.1438 262.657 68.9937L262.251 68.8082C262.031 68.3494 261.839 67.2175 261.726 66.6685L261.782 66.4625L261.741 64.1514C261.082 63.1011 261.459 63.4449 260.213 62.917L258.997 63.6395L257.264 61.5555L255.541 61.2881L255.734 60.9293C256.455 59.5631 258.363 54.4876 258.869 52.9362C259.569 51.0061 260.811 48.3989 261.184 46.4582C264.607 39.2848 268.702 32.4516 273.413 26.0503C273.947 25.4991 274.617 24.5975 275.111 23.9834C278.126 20.2359 281.489 17.0596 285.059 13.8425C286.042 13.2696 286.483 12.7233 287.259 11.9014Z" fill="#ED590B"/>
<path d="M266.938 64.2249C271.461 50.2035 280.317 33.0694 290.786 22.7831C292.171 21.4223 294.221 19.0611 295.742 17.999L297.033 19.4693L298.175 20.6219L299.067 21.7476C296.096 25.307 292.415 28.6543 289.573 32.0907C282.315 40.8671 275.857 53.9972 272.376 64.91C270.643 69.5584 269.62 73.7876 269.174 78.7273L266.995 78.4934L265.468 78.2849L264.059 77.8996C263.801 74.8783 264.529 75.6293 264.986 73.0435C264.698 71.9389 265.693 69.0144 266.051 67.828C265.999 67.407 266.768 64.9664 266.938 64.2249Z" fill="#ED590B"/>
<path d="M298.175 20.6221L299.067 21.7478C296.096 25.3072 292.415 28.6544 289.573 32.0909C282.315 40.8673 275.857 53.9973 272.376 64.9102C270.643 69.5585 269.62 73.7877 269.174 78.7275L266.994 78.4936C267.062 78.2269 267.084 78.1545 267.192 77.9013C269.261 73.0404 269.833 66.59 271.667 61.6812C276.417 48.971 283.664 35.1438 293.22 25.4567C294.783 23.8729 296.38 21.8289 298.175 20.6221Z" fill="#F39B5B"/>
<path d="M266.938 64.2249C271.461 50.2035 280.317 33.0694 290.786 22.7831C292.171 21.4223 294.221 19.0611 295.742 17.999L297.033 19.4693C283.331 29.9801 273.86 49.4802 268.317 65.4358L266.938 64.2249Z" fill="#F39B5B"/>
<path d="M266.938 64.2246L268.317 65.4355C267.443 68.4451 266.516 71.5093 265.824 74.5684C265.552 75.7705 265.662 77.3012 265.468 78.2846L264.059 77.8993C263.801 74.878 264.529 75.629 264.986 73.0432C264.698 71.9386 265.693 69.0141 266.051 67.8277C265.999 67.4067 266.768 64.9661 266.938 64.2246Z" fill="#F39B5B"/>
<path d="M273.413 26.0508C276.237 26.666 276.28 27.6127 277.87 28.1086L276.888 28.4401L276.685 28.9829C276.159 31.0524 273.964 34.0584 272.48 35.5574C272.229 35.994 271.865 36.4892 271.854 36.964C270.929 38.2596 269.944 39.4817 269.425 40.9855L267.942 43.7149C267.657 44.4437 267.37 45.2423 267.021 45.9365L265.958 46.8927C266.246 48.0304 266.161 48.6696 266.929 49.1866C267.555 48.3964 268.085 47.7546 268.763 47.0062L267.74 49.8939C267.236 50.9149 266.515 52.0919 266.573 53.1972C266.224 54.3702 264.518 56.5856 263.846 58.6351L262.149 58.5608L261.796 59.064C261.472 59.8084 260.335 62.2818 260.213 62.9174L258.997 63.64L257.264 61.5559L255.541 61.2885L255.734 60.9298C256.455 59.5636 258.363 54.4881 258.869 52.9367C259.569 51.0065 260.811 48.3993 261.184 46.4586C264.607 39.2853 268.702 32.4521 273.413 26.0508Z" fill="#ED590B"/>
<path d="M272.48 35.5576C271.857 35.0551 271.852 34.9343 271.514 34.1797C271.542 30.7859 273.218 28.918 276.685 28.9831C276.159 31.0526 273.964 34.0586 272.48 35.5576Z" fill="#F27A36"/>
<path d="M257.264 61.5563C258.304 59.9376 258.128 58.6074 260.297 57.751C261.431 58.1883 261.023 57.8976 261.796 59.0644C261.472 59.8088 260.335 62.2822 260.213 62.9178L258.997 63.6404L257.264 61.5563Z" fill="#F27A36"/>
<path d="M260.192 55.112C261.232 53.4933 261.056 52.1631 263.225 51.3066C264.359 51.744 263.951 51.4533 264.724 52.6201C264.4 53.3645 263.263 55.8378 263.141 56.4734L261.925 57.196L260.192 55.112Z" fill="#F27A36"/>
<path d="M262.192 49.112C263.232 47.4933 263.056 46.1631 265.225 45.3066C266.359 45.744 265.951 45.4533 266.724 46.6201C266.4 47.3645 265.263 49.8378 265.141 50.4734L263.925 51.196L262.192 49.112Z" fill="#F27A36"/>
<path d="M269.305 51.5226C269.836 49.6731 270.952 48.9282 270.166 46.7332C269.089 46.1688 269.577 46.284 268.19 46.4721C267.844 47.2063 266.734 49.6923 266.336 50.2027L266.595 51.5937L269.305 51.5226Z" fill="#F27A36"/>
<path d="M269.425 40.985L266.619 40.3239C267.004 38.6478 267.868 37.0531 269.428 36.2174C270.081 35.867 271.2 36.6496 271.854 36.9636C270.929 38.2592 269.944 39.4813 269.425 40.985Z" fill="#F27A36"/>
<path d="M267.726 44.9199C266.583 43.0269 265.89 44.2832 265.192 42.6125L265.526 41.831C267.495 40.8516 267.53 41.3027 268.647 42.6984C268.361 43.4271 268.074 44.2257 267.726 44.9199Z" fill="#F27A36"/>
<path d="M269.014 45.6479C271.201 45.3164 270.678 46.6525 272.409 46.1211L272.796 45.3646C272.29 43.2238 271.921 43.4857 270.134 43.5193C269.756 44.2045 269.325 44.9358 269.014 45.6479Z" fill="#F27A36"/>
<path d="M291.521 14.4102L292.774 15.466C290.045 17.1502 288.118 19.3547 285.931 21.6905C284.136 23.6759 281.522 26.4094 279.996 28.5029L279.022 29.9273C277.674 31.8917 276.054 34.1391 274.9 36.1805C274.607 36.6433 274.074 37.5548 273.713 37.9048C272.845 39.1029 272.566 39.5176 271.952 40.8536L271.455 42.0154L268.914 46.8362L268.763 47.0064C268.085 47.7549 267.555 48.3967 266.929 49.1869C266.161 48.6699 266.246 48.0306 265.958 46.8929L267.021 45.9368C267.37 45.2426 267.657 44.444 267.942 43.7152L269.425 40.9857C269.944 39.482 270.929 38.2599 271.854 36.9643C271.865 36.4894 272.229 35.9943 272.48 35.5577C273.964 34.0587 276.159 31.0527 276.685 28.9832L276.888 28.4403L277.87 28.1089C281.356 23.0996 286.647 18.0572 291.521 14.4102Z" fill="#871D0C"/>
<path d="M266.573 53.1973C266.907 53.289 267.769 53.4996 268.022 53.6448C267.957 55.3275 267.707 55.6855 267.042 57.1682C265.567 60.451 266.592 62.0341 263.476 64.3899C263.677 65.6641 263.843 65.4898 264.852 66.6257C263.985 67.306 263.358 68.1443 262.657 68.9942L262.251 68.8087C262.031 68.3499 261.839 67.218 261.726 66.669L261.782 66.463L261.741 64.152C261.082 63.1016 261.459 63.4454 260.213 62.9175C260.335 62.2818 261.472 59.8085 261.796 59.0641L262.149 58.5609L263.846 58.6351C264.518 56.5857 266.224 54.3703 266.573 53.1973Z" fill="#F27A36"/>
<path d="M262.149 58.5605L263.846 58.6348C263.995 59.3024 262.396 65.4629 261.782 66.4627L261.741 64.1516C261.082 63.1012 261.459 63.445 260.213 62.9171C260.335 62.2815 261.472 59.8081 261.796 59.0637L262.149 58.5605Z" fill="#871D0C"/>
<path d="M285.931 21.6904L287.416 21.9648C288.275 23.7068 283.363 28.1976 282.093 29.447C280.936 29.4667 281.144 29.331 279.996 28.5029C281.522 26.4094 284.136 23.6759 285.931 21.6904Z" fill="#F27A36"/>
<path d="M284.103 20.8718L283.598 19.4487C281.743 18.8741 278.079 24.4303 277.045 25.8803C277.207 27.0258 277.309 26.7994 278.307 27.8032C280.135 25.9673 282.424 22.9561 284.103 20.8718Z" fill="#F27A36"/>
<path d="M279.023 29.9268L280.518 30.8993C280.895 33.3082 278.375 35.492 276.737 36.9251C275.701 37.0565 275.989 36.9913 274.9 36.18C276.054 34.1385 277.674 31.8911 279.023 29.9268Z" fill="#F27A36"/>
<path d="M273.713 37.9043L275.252 38.1637C275.763 39.0879 275.704 38.6691 275.444 39.7373C274.765 40.4206 274.37 40.9561 273.415 41.1504L271.952 40.8532C272.566 39.5172 272.845 39.1024 273.713 37.9043Z" fill="#F27A36"/>
<path d="M272.376 64.9106C273.383 64.9619 274.391 64.9925 275.399 65.0027C286.757 65.0362 296.186 58.1026 302.62 49.3181C303.987 47.4524 304.889 46.2197 306.527 44.5938C305.754 64.6981 289.497 79.4214 269.478 78.7407L269.174 78.728C269.62 73.7882 270.643 69.559 272.376 64.9106Z" fill="#D4470A"/>
<path d="M255.541 61.2881L257.264 61.5555L258.997 63.6395L260.213 62.917C261.459 63.4449 261.082 63.1011 261.741 64.1515L261.782 66.4625L261.726 66.6685C261.839 67.2175 262.031 68.3494 262.251 68.8082L262.657 68.9937C263.358 68.1438 263.985 67.3055 264.852 66.6252L266.05 67.8276C265.693 69.0141 264.698 71.9386 264.986 73.0432C264.529 75.629 263.801 74.878 264.058 77.8993L262.182 77.5209L259.519 76.7576L257.112 75.7225L253.003 73.5358C253.267 71.9564 253.496 71.0658 253.959 69.53C254.106 68.4986 255.284 61.8127 255.541 61.2881Z" fill="#ED590B"/>
<path d="M255.541 61.2881L257.264 61.5555L258.997 63.6395L260.213 62.917C261.459 63.4449 261.082 63.1011 261.741 64.1515L261.782 66.4625L261.726 66.6685L261.185 68.3337L259.926 67.4442L258.584 68.3316C257.007 68.8376 256.822 68.9501 255.489 68.3508L255.09 67.7341C254.776 68.3035 254.399 69.0829 253.959 69.53C254.106 68.4986 255.284 61.8127 255.541 61.2881Z" fill="#ED590B"/>
<path d="M260.213 62.917C261.459 63.4449 261.082 63.1011 261.741 64.1515L261.782 66.4626L261.726 66.6685L261.185 68.3338L259.926 67.4442C260.202 65.6858 259.467 65.728 258.109 65.0345L258.997 63.6396L260.213 62.917Z" fill="#871D0C"/>
<path d="M255.489 68.3515C255.57 66.2911 256.508 66.0921 258.109 65.0352C259.467 65.7286 260.202 65.6864 259.926 67.4448L258.585 68.3322C257.007 68.8383 256.822 68.9507 255.489 68.3515Z" fill="#F27A36"/>
<path d="M253.959 69.5303C254.399 69.0831 254.776 68.3038 255.09 67.7344L255.489 68.3511C256.822 68.9503 257.007 68.8379 258.584 68.3318C258.026 70.5923 257.392 72.7644 257.496 75.1097L257.112 75.7227L253.003 73.5361C253.267 71.9567 253.496 71.066 253.959 69.5303Z" fill="#ED590B"/>
<path d="M259.926 67.4443L261.185 68.3339C261.396 69.564 259.81 74.8797 259.519 76.7578L257.112 75.7227L257.496 75.1096C257.392 72.7643 258.026 70.5922 258.584 68.3317L259.926 67.4443Z" fill="#871D0C"/>
<path d="M262.182 77.5209L262.602 76.3512C262.542 76.2144 262.484 76.0765 262.428 75.9379C261.976 74.8195 261.692 74.2366 262.109 73.2484C263.251 72.7831 263.763 72.9137 264.986 73.0432C264.529 75.629 263.801 74.8781 264.059 77.8993L262.182 77.5209Z" fill="#ED590B"/>
<path d="M322.951 120.396C332.048 119.811 358.724 119.337 366.919 121.063C371.667 122.064 376.105 124.409 378.775 128.591C382.485 134.412 381.758 142.927 380.277 149.34C378.516 156.955 374.61 165.23 368.138 169.936C365.519 171.841 362.511 173.257 359.753 174.971C361.83 184.81 365.29 196.692 368.193 206.324L345.843 206.473C345.162 203.822 344.617 201.567 344.118 198.88C342.7 193.448 341.154 184.673 339.913 178.866C335.999 177.735 332.212 178.006 328.211 178.313C326.45 184.566 322.048 200.419 321.241 206.307C313.893 206.413 306.544 206.41 299.195 206.3C302.672 189.778 308.109 173.226 311.764 156.698C314.427 144.651 318.393 133.186 320.928 121.041C321.856 120.259 321.55 120.485 322.951 120.396ZM332.3 160.712C337.101 161.012 347.876 161.686 351.841 159.427C358.196 154.646 362.129 144.415 355.435 138.247C350.659 136.6 334.282 137.106 328.542 137.398L327.832 137.923C328.629 139.286 335.01 140.941 336.956 141.614C336.439 146.353 333.962 156.125 332.3 160.712Z" fill="#082C54"/>
<path d="M480.103 121.332C485.49 119.295 497.167 120.698 503.213 119.754C498.862 139.27 492.38 159.541 487.742 179.145C485.778 187.452 482.729 198.013 481.532 206.336C474.541 206.354 467.051 206.503 460.095 206.27C456.723 198.081 454.381 189.939 451.634 181.554C448.782 172.841 446.116 164.872 443.86 155.978C442.285 159.791 439.361 171.27 438.36 175.721C436.236 185.159 432.711 196.972 431.059 206.182C423.966 206.67 417.072 206.141 410.15 206.384L426.196 142.551C428.015 135.366 430.394 127.429 432.001 120.312C438.989 120.142 445.981 120.119 452.973 120.244C454.573 126.241 466.672 166.897 468.76 168.854C471.39 167.259 477.316 132.403 481.405 128.616C482.282 127.806 488.877 127.154 490.845 126.602C486.814 125.187 484.719 125.129 480.423 124.832C479.914 123.804 480.248 123.083 480.55 121.959L480.103 121.332Z" fill="#082C54"/>
<path d="M252.489 120.357C253.773 120.29 255.057 120.246 256.343 120.225C268.315 120.037 282.173 119.501 293.804 121.466C302.481 122.932 306.281 132.966 305.962 140.739C305.522 151.446 303.258 161.029 295.629 168.91C283.669 181.265 268.649 179.999 253.032 179.981C251.114 185.752 248.056 199.753 246.428 206.247C239.682 206.645 232.155 206.408 225.352 206.315C227.944 198.61 230.344 186.662 232.389 178.405C237.005 159.066 241.907 139.797 247.094 120.603L252.489 120.357ZM257.395 163.156C263.49 163.057 270.5 163.347 276.135 160.985C283.805 157.419 288.569 141.157 279.436 138.194C274.377 136.553 261.353 137.257 255.679 137.406L254.004 137.809L253.815 138.34C254.895 139.422 260.471 140.93 262.401 141.668C261.127 149.117 259.295 155.829 257.395 163.156Z" fill="#082C54"/>
<path d="M146.06 127.609C143.07 131.863 132.786 138.452 127.941 143.241L127.738 143.436C125.701 145.078 121.32 148.428 119.613 150.095C118.256 151.454 116.966 152.733 115.69 154.173L118.722 157.526C125.943 164.924 129.719 168.154 134.957 177.404L135.009 177.602C135.386 178.964 135.985 180.13 136.386 181.493C145.043 211.011 115.176 229.092 93.2581 240.719C92.1108 241.327 90.9431 241.879 89.7463 242.342L84.5298 237.249C83.2887 235.356 82.1199 233.416 81.026 231.435C73.8914 218.54 73.6197 205.678 77.6681 191.65C81.5284 181.491 86.2683 175.927 93.2578 168.027C94.2301 167.421 98.4222 163.287 99.3822 162.294C113.085 148.123 130.696 139.299 146.06 127.609ZM80.4247 225.519C81.7787 223.638 82.4331 222.754 84.0628 221.111C90.3032 215.589 98.5499 209.204 102.777 202.393C106.99 195.605 105.636 185.357 100.273 179.705C99.2916 178.671 96.9846 176.405 95.6041 176.046C85.7241 187.946 72.9358 209.98 80.4247 225.519Z" fill="#082C54"/>
<path d="M180.801 124.217L181.095 124.145C184.464 123.292 187.925 121.13 191.146 120.348C202.467 117.596 217.135 117.104 226.376 125.222C226.525 125.37 226.666 125.524 226.8 125.686C231.443 131.185 230.631 139.071 230.099 145.72C226.986 146.11 212.4 146.57 209.921 145.748C209.306 144.928 209.377 145.275 209.515 144.276C211.198 132.152 190.32 133.902 189.348 143.845C188.995 147.458 192.544 149.941 195.492 151.083C207.676 155.963 224.953 159.856 223.312 176.388C220.839 201.297 200.661 209.923 178.052 207.755C171.589 207.136 165.652 205.263 161.261 200.08C156.544 194.51 157.161 188.946 157.743 182.204C155.827 181.784 150.314 181.393 149.065 180.51C149.267 180.345 174.179 179.162 177.4 178.749C175.217 189.46 183.189 193.064 192.355 190.865C195.042 190.22 198.316 188.544 199.601 185.968C204.577 176.517 196.242 173.436 188.442 171.209C170.492 166.083 162.345 156.082 171.152 137.834C174.181 131.559 179.729 130.608 185.988 128.837C176.611 127.495 167.936 127.611 159.107 126.359C165.951 125.211 173.112 125.979 180.801 124.217Z" fill="#082C54"/>
<path d="M100.531 140.63C101.339 140.134 102.938 138.628 103.718 137.966C111.344 131.494 119.533 125.798 127.812 120.184C152.324 103.716 178.718 90.2373 206.43 80.0357C215.318 76.7161 222.925 73.8574 232.252 71.8975C234.706 74.7481 238.007 78.723 240.908 80.95C242.452 82.4064 245.646 84.4556 247.531 85.5165C242.82 85.1847 224.387 89.5754 219.064 90.9926C177.228 102.128 135.662 120.54 102.462 148.863C96.5303 154.141 91.4473 159.33 85.8907 165.012C75.3036 177.473 67.3356 191.292 68.6884 208.246C69.5218 218.694 74.8958 231.93 84.5299 237.249L89.7463 242.342C92.3236 244.451 96.6598 247.043 99.6023 248.747C116.669 258.629 132.338 262.797 151.67 265.346C153.63 266.156 154.114 266.219 156.178 266.443C155.359 266.87 154.819 266.836 153.901 266.905C141.061 266.929 127.355 264.041 114.822 261.223C110.169 260.178 104.625 257.824 100.088 256.088C83.1592 249.502 72.1293 241.409 59.6033 228.644C47.0332 212.742 43.7015 188.45 51.2661 169.705C53.2308 168.472 53.3301 165.017 54.5713 164.187C55.0351 167.912 53.2162 167.531 54.46 170.24C53.8132 173.279 53.3064 176.345 52.9416 179.429C51.875 188.978 53.0925 198.675 56.0547 207.79C56.6491 209.619 62.6408 219.295 64.0886 219.449C63.1584 217.654 61.592 214.885 61.369 212.971C59.0805 193.295 65.2122 181.069 76.376 165.634C83.8933 156.184 88.9089 150.827 98.1625 142.722L100.531 140.63Z" fill="#ED590B"/>
<path d="M583.188 119.942C590.463 120.247 598.371 120.023 605.705 120.033L642.053 120.165C641.169 123.5 639.597 133.448 638.208 135.356C633.719 141.503 626.051 148.996 620.863 154.662C610.285 166.216 598.768 177.661 588.393 189.277C601.62 188.837 614.625 189.223 627.844 189.111C626.171 194.849 625.039 200.509 623.457 206.078C615.436 206.437 606.269 206.239 598.16 206.238L559.23 206.395C560.034 202.881 564.162 192.514 563.835 190.824C562.955 190.289 562.609 190.31 561.616 190.222C562.566 189.607 562.842 188.268 562.889 187.222C568.921 185.697 575.166 185.158 581.165 183.973C577.44 183.763 573.653 183.044 569.972 183.236C577.425 176.282 585.337 167.207 592.318 159.681C595.541 156.209 598.83 152.954 601.951 149.389L596.487 149.215C596.811 147.963 596.505 147.322 596.127 146.082C607.993 145.52 605.785 143.239 615.094 137.549C604.952 136.685 588.939 136.51 578.724 137.334C580.259 131.661 581.401 125.403 583.188 119.942Z" fill="#082C54"/>
<path d="M575.8 120.074L576.309 120.13C576.429 121.034 572.908 135.166 572.409 137.303C565.516 137.452 556.52 136.795 549.906 137.371C547.593 143.043 545.068 155.484 543.297 161.82C539.146 176.675 535.548 191.286 532.18 206.334C525.199 206.461 517.916 206.135 511.059 206.361C512.966 199.051 514.654 191.521 516.545 184.148C519.754 171.885 522.5 159.532 525.596 147.241C526.203 144.83 526.778 143.154 528.051 141.033C530.95 139.455 533.639 138.596 536.822 137.849C531.42 136.891 511.376 136.551 506.007 137.25C507.371 133.52 509.379 124.565 510.452 120.367C517.505 119.99 525.447 120.122 532.573 120.125C546.982 120.213 561.391 120.196 575.8 120.074Z" fill="#082C54"/>
<path d="M0 261.009C22.5017 254.114 38.1045 247.912 58.4021 236.775C65.735 244.659 81.2679 255.988 91.4004 259.78C102.13 265.385 114.469 268.919 126.351 271.087C147.599 274.994 168.463 274.829 189.548 270.563C191.502 270.167 193.573 269.876 195.55 269.537C196.953 270.51 197.712 270.829 198.091 272.449L193.54 274.081C151.877 288.952 100.9 286.713 64.0711 260.444C60.8015 258.112 56.3559 254.866 52.8419 253.2C32.6072 256.856 20.7807 259.173 0 261.009Z" fill="#082C54"/>
<path d="M402.463 120.362C407.953 120.082 413.729 120.506 419.208 120.069C416.669 133.118 413.042 146.205 409.688 159.068C405.672 174.691 401.83 190.359 398.164 206.069C396.727 206.257 394.886 206.276 393.413 206.332C388.316 206.397 381.961 206.047 377.018 206.424L391.165 149.715C393.587 139.969 396.221 130.467 398.316 120.636L402.463 120.362Z" fill="#082C54"/>
<path d="M115.751 51.889C133.653 27.6751 160.266 10.8596 190.131 5.50119C204.669 2.89271 218.359 4.39535 232.806 6.70865C229.066 7.46644 209.962 15.7067 206.325 17.9101C193.786 25.5066 187.025 22.2539 173.512 25.0027C157.154 28.3296 140.328 36.9063 126.84 46.6989C123.028 49.4295 119.474 52.9623 116.221 55.3159C116.105 53.559 115.359 54.279 115.751 51.889Z" fill="#082C54"/>
<path d="M185.607 36.6279C191.545 33.6492 197.446 30.319 203.449 27.3082C212.972 22.5893 222.647 18.1826 232.457 14.0947C227.95 18.7618 225.371 26.8105 223.999 32.963C222.168 33.9402 221.438 34.2211 219.502 34.8811C197.369 42.7112 175.96 52.4521 155.515 63.9933C154.511 64.5722 149.386 67.4032 148.862 67.9671C137.004 74.3389 125.354 83.9082 114.224 91.5505C112.918 92.4466 109.431 95.8732 108.351 96.3815C106.94 96.7086 105.063 97.8441 103.285 98.5154C104.321 96.7821 105.592 95.2874 106.734 93.3697C107.701 92.1275 113.865 86.9094 115.6 85.2012C135.894 67.1085 162.123 50.0472 185.607 36.6279Z" fill="#ED590B"/>
<path d="M216.346 56.2405C218.105 55.3152 221.896 54.3631 223.933 53.8271L224.573 55.2072C225.062 57.1515 226.709 61.6569 227.528 63.6176C195.228 72.5515 164.044 85.0001 134.913 101.803C130.412 104.399 123.914 109.064 119.507 112.124C118.179 111.317 118.261 112.192 116.871 111.562L116.666 110.49C115.645 111.326 114.716 112.164 113.521 112.73L113.506 111.814C114.043 111.201 114.163 110.848 114.363 110.062C114.702 109.657 117.803 107.364 118.415 106.901C120.198 106.5 128.229 103.985 128.688 103.101C131.186 98.2928 136.319 96.7443 139.553 92.6272C145.157 88.6192 152.613 85.1518 158.626 81.6889C167.603 76.5191 177.299 72.6552 186.556 68.0582C187.775 67.6838 192.753 65.3905 194.168 64.7851C198.622 62.8502 203.141 61.0689 207.716 59.4437C212.402 60.1415 213.118 59.8639 216.346 56.2405Z" fill="#ED590B" fill-opacity="0.901961"/>
<path d="M398.52 221.141C400.666 221.004 401.776 221.158 403.897 221.404C406.719 226.245 411.354 234.321 414.515 238.712C416.145 233.659 417.512 226.986 419.186 221.399L426.898 221.364C426.094 224.541 420.375 251.431 419.571 252.316L412.762 252.264C409.08 246.73 406.683 240.924 402.26 235.29C400.55 239.68 399.222 247.442 398.411 252.263L390.182 252.391C391.499 243.524 394.85 230.987 397.287 222.11C397.487 221.37 397.814 221.411 398.52 221.141Z" fill="#082C54"/>
<path d="M308.522 74.6064C309.908 75.6579 313.322 88.4252 313.842 90.6992C314.813 94.9113 315.308 100.233 315.952 104.572L293.5 104.584C291.963 104.583 291.203 104.558 289.69 104.335C289.382 104.064 285.843 92.1433 284.909 90.2455C287.189 89.3297 289.751 88.6894 292.057 87.6586C299.067 84.526 303.479 80.0614 308.522 74.6064Z" fill="#082C54"/>
<path d="M84.069 135.53C106.556 106.748 148.345 79.0917 180.48 62.1006C187.978 62.4513 182.008 63.9958 186.827 66.0802C186.147 67.2889 184.66 67.1681 183.794 67.9703L186.556 68.0587C177.299 72.6558 167.603 76.5197 158.626 81.6894C152.613 85.1524 145.157 88.6197 139.553 92.6277C134.225 95.6618 123.414 102.904 118.415 106.901C117.804 107.365 114.702 109.658 114.363 110.063C110.607 112.307 98.1509 123.296 94.9232 126.633C92.8984 128.05 86.3957 134.5 85.065 136.547C83.9973 137.753 82.9439 138.973 81.9049 140.204L81.5186 140.066C81.8151 138.526 83.5448 138.034 84.069 135.53Z" fill="#082C54"/>
<path d="M285.489 221.513C292.294 221.032 301.939 221.33 308.902 221.36C308.37 223.56 307.869 225.43 307.203 227.594C303.822 228.057 295.475 227.923 291.478 228.047L290.362 233.638C294.577 233.636 299.98 233.759 304.074 233.402L302.845 239.74C298.823 239.731 293.53 239.337 289.511 239.751C288.738 239.83 288.59 240.378 288.193 241.048C287.827 242.625 287.626 244.203 287.396 245.803C291.705 246.152 299.259 246.097 303.601 245.775C303.114 247.884 302.693 250.007 302.338 252.142C294.259 252.359 286.052 252.178 277.933 252.337C279.306 242.863 281.654 232.642 284.091 223.319C284.388 222.181 284.527 222.056 285.489 221.513Z" fill="#082C54"/>
<path d="M373.34 221.151C377.232 220.999 380.768 221.474 384.93 221.047L383.395 227.797C378.229 228.179 372.947 227.723 367.72 228.265C367.338 229.942 367.298 231.839 367.2 233.572C371.492 233.677 376.057 233.619 380.372 233.639L379.04 239.659C374.529 239.579 369.942 239.43 365.439 239.638L363.304 245.727C365.461 246.013 367.534 245.979 369.71 245.996C373.136 245.993 376.796 246.074 380.19 245.711C379.895 247.774 379.433 249.908 379.029 251.959C370.732 252.457 362.281 252.046 353.94 252.363C356.254 242.614 358.505 230.935 361.332 221.438C365.333 221.293 369.335 221.197 373.34 221.151Z" fill="#082C54"/>
<path d="M513.377 235.199C514.788 233.729 515.41 233.735 517.462 233.72C526.101 233.654 534.821 233.937 543.457 234.072C553.355 234.151 563.25 234.151 573.148 234.072C584.137 234.007 595.13 234.009 606.12 234.079C608.022 234.084 614.923 233.831 616.091 234.096L616.545 234.58C616.407 234.946 616.178 235.632 616 235.94C615.847 237.079 615.832 237.722 615.258 238.721C612.166 239.478 593.904 238.815 589.612 238.81C569.164 238.619 548.717 238.739 528.277 239.17C522.486 239.258 516.785 238.97 510.976 239.187C511.831 237.568 512.355 236.712 513.377 235.199Z" fill="#ED590B"/>
<path d="M484.879 220.731C489.193 220.291 493.486 221.432 497.345 223.269L493.748 228.94C490.35 227.848 481.7 225.976 479.979 230.212C480.419 234.645 489.594 233.548 492.813 237.167C493.784 237.998 495.145 239.718 494.999 241.198C494.115 250.09 486.312 252.701 479.408 252.777C474.326 252.533 471.892 251.868 467.364 249.778C468.895 246.624 469.404 244.126 473.38 245.151C476.8 246.034 485.065 248.76 486.232 243.711C484.974 239.405 477.164 239.958 473.766 236.995C470.768 234.776 470.372 232.311 471.889 228.869C474.322 223.342 479.335 221.401 484.879 220.731Z" fill="#082C54"/>
<path d="M251.464 233.883C255.425 233.68 259.728 233.772 263.716 233.778C263.316 235.394 263.051 237.181 262.769 238.831L176.002 238.86C171.259 238.97 166.335 238.897 161.587 238.855C162.829 236.03 162.922 234.321 166.415 234.219C177.14 233.907 187.891 234.189 198.625 234.251C216.239 234.267 233.853 234.145 251.464 233.883Z" fill="#ED590B" fill-opacity="0.988235"/>
<path d="M351.106 221.191L351.652 221.082L351.863 221.491C351.041 223.077 349.775 224.973 348.702 226.418C342.58 234.673 337.258 243.877 331.306 252.175C329.044 252.368 325.788 252.276 323.442 252.274C322.121 245.72 320.662 239.016 319.506 232.449C318.847 228.757 318.098 225.081 317.261 221.425C319.946 221.336 322.889 221.385 325.595 221.375C325.817 225.095 328.742 237.361 329.615 241.722C333.813 236.675 337.523 228.545 342.056 223.337C344.246 220.822 347.767 221.304 351.106 221.191Z" fill="#082C54"/>
<path d="M180.48 62.1004C192.54 54.791 210.153 48.1459 223.15 41.9316L223.933 53.8276C221.896 54.3635 218.105 55.3157 216.346 56.2409C213.444 57.2367 210.566 58.3049 207.716 59.4441C203.141 61.0693 198.622 62.8507 194.168 64.7855C192.753 65.391 187.775 67.6842 186.556 68.0586L183.794 67.9702C184.66 67.1679 186.147 67.2887 186.827 66.0801C182.008 63.9957 187.978 62.4512 180.48 62.1004Z" fill="#082C54"/>
<path d="M437.218 221.432C445.817 221.121 455.697 221.336 464.439 221.264C463.853 223.298 463.518 225.465 463.144 227.554C459.724 227.471 457.265 227.513 453.904 228.1C452.962 230.448 451.001 240.346 449.953 244.095C449.175 247.01 448.669 249.308 448.113 252.275L439.499 252.324C441.74 244.182 443.373 236.164 445.399 227.985C442.18 227.884 438.957 227.813 435.737 227.773C436.203 225.602 436.636 223.577 437.218 221.432Z" fill="#082C54"/>
<path d="M94.9232 126.633C98.1509 123.296 110.607 112.307 114.363 110.062C114.163 110.848 114.043 111.201 113.506 111.814L113.521 112.73C114.716 112.164 115.645 111.326 116.666 110.49L116.871 111.562C118.262 112.193 118.179 111.318 119.507 112.125C105.402 122.181 92.1858 132.419 80.4171 145.187C79.0501 146.67 77.7256 148.16 76.2956 149.585L75.9337 148.992C76.4433 146.289 80.6314 142.702 81.9049 140.204C82.9439 138.972 83.9973 137.753 85.065 136.547C87.3939 135.948 94.782 128.711 94.9232 126.633Z" fill="#D9530D"/>
<path d="M596.487 149.215C592.573 149.099 567.338 148.691 565.84 147.804C567.415 147.16 592.686 146.169 596.127 146.082C596.505 147.322 596.811 147.963 596.487 149.215Z" fill="#082C54"/>
<path d="M106.734 93.3701C105.592 95.2879 104.321 96.7825 103.285 98.5158C105.063 97.8446 106.94 96.709 108.351 96.3819C100.327 102.853 93.2982 108.835 86.3062 116.409L84.7332 116.329C90.7223 109.994 100.448 98.5413 106.734 93.3701Z" fill="#ED590B"/>
<path d="M84.069 135.53C83.5448 138.034 81.8151 138.526 81.5186 140.066L81.9049 140.204C80.6314 142.702 76.4433 146.289 75.9336 148.992L76.2956 149.585C73.6135 152.188 70.7299 155.623 68.687 158.746C67.8583 159.701 65.5382 164.153 64.3476 164.369C70.3141 153.868 75.7332 144.438 84.069 135.53Z" fill="#082C54"/>
<path d="M201.171 267.918C208.953 265.696 216.493 262.703 223.68 258.984C224.419 258.594 227.383 256.815 227.716 256.993C223.145 260.893 211.48 266.644 205.836 269.491C205.313 269.524 204.789 269.541 204.265 269.541C202.687 269.531 202.272 269.031 201.171 267.918Z" fill="#082C54"/>
<path d="M63.4356 144.827C64.1104 144.37 64.2093 144.289 65.0158 144.222C59.8499 154.841 57.217 157.375 54.4599 170.24C53.2162 167.531 55.0351 167.912 54.5713 164.186C53.3301 165.017 53.2308 168.471 51.2661 169.704C52.5669 164.863 57.0202 156.31 59.5716 151.746C60.7459 149.646 62.6015 146.927 63.4356 144.827Z" fill="#ED590B"/>
<path d="M118.415 106.901C123.414 102.903 134.225 95.661 139.553 92.627C136.319 96.7441 131.186 98.2926 128.688 103.101C128.229 103.985 120.198 106.5 118.415 106.901Z" fill="#D9530D"/>
<path d="M480.103 121.332L480.55 121.96C480.248 123.083 479.913 123.804 480.423 124.832C476.156 124.277 471.896 123.682 467.629 123.113C466.992 123.028 464.344 122.323 464.453 122.333C469.044 121.537 475.21 122.512 479.935 121.374L480.103 121.332Z" fill="#082C54"/>
<path d="M547.531 189.84L562.889 187.222C562.842 188.268 562.566 189.607 561.616 190.222C556.92 190.214 552.224 190.087 547.531 189.84Z" fill="#082C54"/>
<path d="M196.497 269.222C198.048 268.761 199.606 268.326 201.171 267.918C202.272 269.031 202.687 269.532 204.265 269.541C204.789 269.541 205.313 269.524 205.836 269.492C203.255 270.579 200.79 271.675 198.091 272.448C197.712 270.829 196.953 270.51 195.55 269.537L196.497 269.222Z" fill="#082C54"/>
<path d="M115.751 51.8887C115.359 54.2787 116.105 53.5587 116.221 55.3156C113.138 58.2492 110.552 61.5121 107.475 64.362C110.225 60.4057 112.55 55.3167 115.751 51.8887Z" fill="#082C54"/>
<path d="M85.065 136.547C86.3957 134.499 92.8984 128.05 94.9232 126.633C94.782 128.711 87.3939 135.948 85.065 136.547Z" fill="#D9530D"/>
<path d="M151.67 265.346L164.728 266.141C162.908 266.781 162.372 266.672 160.78 267.075L157.603 267.256L153.901 266.905C154.819 266.835 155.359 266.87 156.178 266.443C154.114 266.219 153.63 266.156 151.67 265.346Z" fill="#ED590B"/>
<path d="M207.716 59.4434C210.566 58.3043 213.444 57.236 216.346 56.2402C213.118 59.8637 212.402 60.1413 207.716 59.4434Z" fill="#ED590B" fill-opacity="0.858824"/>
<path d="M84.7332 116.329L86.3061 116.409C83.9747 118.816 81.9362 120.964 79.3625 123.136C81.058 120.794 82.8496 118.523 84.7332 116.329Z" fill="#ED590B"/>
<path d="M164.728 266.142L167.922 266.036L169.468 266.914L162.987 267.117L160.78 267.076C162.372 266.672 162.908 266.781 164.728 266.142Z" fill="#ED590B"/>
<path d="M167.922 266.036C168.939 266.082 169.66 265.999 170.479 266.562C170.112 266.742 169.877 266.9 169.467 266.914L167.922 266.036Z" fill="#ED590B"/>
<path d="M265.958 46.8926C266.246 48.0303 266.161 48.6695 266.929 49.1866C267.555 48.3963 268.085 47.7545 268.763 47.0061L267.74 49.8938C267.236 50.9148 266.515 52.0918 266.573 53.1971C266.224 54.3701 264.518 56.5855 263.846 58.635L262.149 58.5607C261.848 58.1758 261.528 57.6915 261.244 57.283C261.395 55.9892 262.699 55.7538 263.781 53.8495L263.934 53.5759C263.954 51.0799 265.96 50.1926 265.958 46.8926Z" fill="#871D0C"/>
</svg>
